# xmcd
#
# Track frame offsets: 
#        183
#        32483
#        44745
#        57833
#        76795
#        95790
#        108370
#        130983
#        153833
#        170023
#        189808
#        204153
#        219758
#        237133
#        256958
#        273558
#        295833
#        309358
#
# Disc length: 4374 seconds
#
# Revision: 2
# Processed by: cddbd v1.5.2PL0 Copyright (c) Steve Scherf et al.
# Submitted via: ExactAudioCopyFreeDBPlugin 1.0
#
DISCID=ef111412
DTITLE=Eric Clapton - The Cream Of Eric Clapton
DYEAR=1994
DGENRE=Blues
TTITLE0=Layla
TTITLE1=Badge
TTITLE2=I Feel Free
TTITLE3=Sunshine Of Your Love
TTITLE4=Crossroads
TTITLE5=Strangebrew
TTITLE6=White Room
TTITLE7=Bell Bottom Blues
TTITLE8=Cocaine
TTITLE9=I Shot The Sheriff
TTITLE10=After Midnight
TTITLE11=Swing Low Sweet Chariot
TTITLE12=Lay Down Sally
TTITLE13=Knockin' On Heavens Door
TTITLE14=Wonderful Tonight
TTITLE15=Let It Grow
TTITLE16=Promise
TTITLE17=I Can't Stand It
EXTD=
EXTT0=
EXTT1=
EXTT2=
EXTT3=
EXTT4=
EXTT5=
EXTT6=
EXTT7=
EXTT8=
EXTT9=
EXTT10=
EXTT11=
EXTT12=
EXTT13=
EXTT14=
EXTT15=
EXTT16=
EXTT17=
PLAYORDER=
